<?xml version="1.0" encoding="UTF-8"?>
<svg id="kubeport-symbols" xmlns="http://www.w3.org/2000/svg" style="display:none">
	<symbol id="icon-kubeport" viewBox="0 0 24 24">
		<path d="M7 4 V20" stroke-linecap="round" stroke-linejoin="round"/>
		<path d="M7 12 L15 4" stroke-linecap="round" stroke-linejoin="round"/>
		<path d="M7 12 L15 20" stroke-linecap="round" stroke-linejoin="round"/>
	</symbol>
	<symbol id="icon-cluster" viewBox="0 0 24 24">
		<circle cx="12" cy="5" r="2.5" fill="none"/>
		<circle cx="5" cy="18" r="2.5" fill="none"/>
		<circle cx="19" cy="18" r="2.5" fill="none"/>
		<line x1="11" y1="7.5" x2="6" y2="16" stroke-linecap="round"/>
		<line x1="13" y1="7.5" x2="18" y2="16" stroke-linecap="round"/>
		<line x1="7.5" y1="18" x2="16.5" y2="18" stroke-linecap="round"/>
	</symbol>
	<symbol id="icon-helm" viewBox="0 0 24 24">
		<circle cx="12" cy="12" r="8" fill="none"/>
		<circle cx="12" cy="12" r="2.5" fill="none"/>
		<line x1="12" y1="2" x2="12" y2="6" stroke-linecap="round"/>
		<line x1="12" y1="18" x2="12" y2="22" stroke-linecap="round"/>
		<line x1="2" y1="12" x2="6" y2="12" stroke-linecap="round"/>
		<line x1="18" y1="12" x2="22" y2="12" stroke-linecap="round"/>
		<line x1="5" y1="5" x2="8" y2="8" stroke-linecap="round"/>
		<line x1="16" y1="16" x2="19" y2="19" stroke-linecap="round"/>
		<line x1="19" y1="5" x2="16" y2="8" stroke-linecap="round"/>
		<line x1="8" y1="16" x2="5" y2="19" stroke-linecap="round"/>
	</symbol>
	<symbol id="icon-frappe-site" viewBox="0 0 24 24">
		<circle cx="12" cy="12" r="9" fill="none"/>
		<ellipse cx="12" cy="12" rx="4" ry="9" fill="none"/>
		<line x1="3" y1="12" x2="21" y2="12" stroke-linecap="round"/>
	</symbol>
	<symbol id="icon-service-bundle" viewBox="0 0 24 24">
		<rect x="4" y="4" width="16" height="4" rx="1" fill="none"/>
		<rect x="4" y="10" width="16" height="4" rx="1" fill="none"/>
		<rect x="4" y="16" width="16" height="4" rx="1" fill="none"/>
	</symbol>
</svg>
